<svg xmlns="http://www.w3.org/2000/svg" xmlns:xlink="http://www.w3.org/1999/xlink" width="180" height="61.219" viewBox="0 0 180 61.219"><defs><style>.a{fill:none;}.b{clip-path:url(#a);}.c{fill:#e20613;}.c,.d{fill-rule:evenodd;}.d{fill:#5c5c5b;}</style><clipPath id="a"><rect class="a" width="180" height="61.219"/></clipPath></defs><g class="b"><path class="c" d="M135.49,26.227l-5.337-15.969c-4.42-.042-8.923,0-13.343,0h-5.129c-1.835,0-3.294,1.084-3.294,2.919a3.274,3.274,0,0,0,3.294,3.294h2.543c9.048-.292,15.177,3.628,16.97,9.757H111.681c-8.8-.292-13.885-7.964-13.092-14.343.834-6.5,5.712-11.925,13.3-11.842,9.3,0,18.346-.042,27.6,0l8.423,26.185Zm59.291,0a13.179,13.179,0,0,0,.584-4.128,12.152,12.152,0,0,0-2.585-7.839,10.572,10.572,0,0,0-2.043-1.876V.542a18.983,18.983,0,0,1,3.5,1.126,20.449,20.449,0,0,1,6.546,4.712,21.534,21.534,0,0,1,4.461,7,22.637,22.637,0,0,1,1.543,8.214,24.2,24.2,0,0,1-.459,4.628ZM177.269,22.1a13.179,13.179,0,0,0,.584,4.128H166.469a24.2,24.2,0,0,1-.459-4.628,22.2,22.2,0,0,1,1.584-8.256,29.056,29.056,0,0,1,1.459-3.044h-3.628l-4.795,15.928H148.415L156.546,0l25.6.042V12.259a9.153,9.153,0,0,0-2.252,2,12.108,12.108,0,0,0-2.627,7.839M184.982.042a21.557,21.557,0,0,1,2.835.167V11.049a8.267,8.267,0,0,0-1.459-.125,7.677,7.677,0,0,0-1.376.125ZM80.576,16.47,75.99,26.227H63.648L76.115.042h8.923L97.5,26.227H85.246l-4.628-9.715Z" transform="translate(-26.789)"/><path class="d" d="M0,45.258H70.716L73.885,51.8H90.521a2.991,2.991,0,0,0,1.209-.25,1.32,1.32,0,0,0,.751-.417,3.2,3.2,0,0,0,1.334-2.585,3.345,3.345,0,0,0-3.336-3.336s9.09.042,13.926.042a13.993,13.993,0,0,1,.584,3.252c.417,7.63-6.254,13.676-12.425,13.676-8.673,0-17.345.042-26.018,0l-2.627-6.463h-.208l-9.882.083-9.965-.083h-.208L41.07,62.27H28.728l3.085-6.546H0v-.375l69.882-1.293V53.68L0,52.388v-.417l69.882-1.293V50.3L0,49.052v-.459l69.882-1.251v-.417L0,45.633Zm151.063,0a11.746,11.746,0,0,0,2.043,3.753,8.169,8.169,0,0,0,6.463,3.211,8.014,8.014,0,0,0,6.379-3.211,11.746,11.746,0,0,0,2.043-3.753h11.55a23.561,23.561,0,0,1-1.084,3.711A21.885,21.885,0,0,1,174,55.89,20.45,20.45,0,0,1,167.45,60.6a18.962,18.962,0,0,1-15.552,0,20.775,20.775,0,0,1-6.63-4.712,22.543,22.543,0,0,1-4.461-6.963,19.43,19.43,0,0,1-1.084-3.669Zm-17.22,0L128.714,62.27h-14.3L108.7,45.258h12.425l.25.834.25-.834Z" transform="translate(0 -19.031)"/><path class="d" d="M51.9,103.355H50.111V100.71H51.9Zm7.178-2.645c.085.158.164.317.244.477-.025-.162-.046-.32-.064-.475l1.607,0v2.645H58.784l-1.74-2.645Zm8.083,0v2.645H65.247V100.71Zm4.994,0a3.3,3.3,0,0,0,.3.519,2.344,2.344,0,0,0,1.876.834,2.8,2.8,0,0,0,1.376-.334,4.614,4.614,0,0,0,1.047-1.023l.232,0,1.223.852a4.393,4.393,0,0,1-1.627,1.543,4.723,4.723,0,0,1-2.251.5,3.9,3.9,0,0,1-3.211-1.418,4.6,4.6,0,0,1-.844-1.478Zm11.386,0a2.742,2.742,0,0,0,.163.227,2.43,2.43,0,0,0,3.836-.042,2.265,2.265,0,0,0,.145-.187l2.4,0v2.645H88.337c.041-.375.041-.751.083-1.126.042-.334.084-.751.167-1.126a7.337,7.337,0,0,1-1.626,1.876,3.612,3.612,0,0,1-1.335.542,1.618,1.618,0,0,1-.625.083,3.374,3.374,0,0,1-2.877-1.418,4.943,4.943,0,0,1-.786-1.474Zm10.893,0a2.778,2.778,0,0,0,.319.519,2.287,2.287,0,0,0,1.876.834,2.75,2.75,0,0,0,1.334-.334,3.53,3.53,0,0,0,1.055-1.022l.228,0,1.26.852a4.828,4.828,0,0,1-1.668,1.543,4.668,4.668,0,0,1-2.21.5,3.978,3.978,0,0,1-3.252-1.418,4.4,4.4,0,0,1-.826-1.478Zm11.077,2.645h-1.835V100.71h1.835Zm8.469-2.645c.051.094.1.184.161.269a2.107,2.107,0,0,0,3.586,0,2.676,2.676,0,0,0,.174-.269h2.131a4.6,4.6,0,0,1-.845,1.478,3.976,3.976,0,0,1-3.252,1.418,4.09,4.09,0,0,1-3.253-1.418,4.6,4.6,0,0,1-.844-1.478Zm9.068,0a3.782,3.782,0,0,0,1.1.936,2.963,2.963,0,0,0,1.543.417,2.245,2.245,0,0,0,1.376-.375,1.13,1.13,0,0,0,.542-.98l1.747,0a2.829,2.829,0,0,1-1,2.062,4.165,4.165,0,0,1-2.669.834,5.515,5.515,0,0,1-2.377-.5,4.583,4.583,0,0,1-1.751-1.459l1.11-.936Zm11.607,2.645h-1.835V100.71h1.835Zm5.561-2.645a2.718,2.718,0,0,0,.319.519,2.26,2.26,0,0,0,1.835.834,2.92,2.92,0,0,0,1.376-.334,4.614,4.614,0,0,0,1.047-1.023l.231,0,1.223.852a4.818,4.818,0,0,1-1.668,1.543,4.553,4.553,0,0,1-2.209.5,3.893,3.893,0,0,1-3.211-1.418,4.391,4.391,0,0,1-.827-1.478Zm11.034,2.645H149.42V100.71h1.835Zm8.881,0H158.26V100.71h1.876Zm7.645-2.645a2.748,2.748,0,0,0,.319.519,2.345,2.345,0,0,0,1.877.834,2.922,2.922,0,0,0,1.376-.334,4.626,4.626,0,0,0,1.047-1.023l.232,0,1.223.852a4.818,4.818,0,0,1-1.668,1.543,4.667,4.667,0,0,1-2.209.5,3.977,3.977,0,0,1-3.252-1.418,4.391,4.391,0,0,1-.827-1.478Zm11.285,0v2.645h-1.917V100.71Zm5.584,0a2.778,2.778,0,0,0,.253.31,2.969,2.969,0,0,0,2.335,1,3.766,3.766,0,0,0,1.668-.375,4.186,4.186,0,0,0,1.209-.935h.167v1.937a6.311,6.311,0,0,1-3.336.959,5.338,5.338,0,0,1-2-.375,5.114,5.114,0,0,1-1.584-1.084,5.816,5.816,0,0,1-.912-1.433Zm10.052,2.645h-1.918V100.71H194.7Zm6.38,0h-1.918V100.71h1.918Z" transform="translate(-21.091 -42.387)"/><path class="d" d="M51.9,95.71v2.9H50.112v-2.9Zm5.36,0,.769,1.163c.292.459.542.834.751,1.209.109.174.206.348.3.522l-2.038,0-1.9-2.9Zm3.6,0v2.9H59.262c-.044-.36-.073-.7-.1-1.024-.042-.459-.042-.876-.042-1.251V95.71Zm6.3,0v2.9H65.247v-2.9Zm11.523,0c.018.239.027.488.027.746v.125H71.794v.167a4.427,4.427,0,0,0,.365,1.855l-1.877,0a6.9,6.9,0,0,1-.365-2.316c0-.2.007-.391.02-.579Zm4.342,0a6.072,6.072,0,0,0-.03.621,4.129,4.129,0,0,0,.546,2.275H81.338A7.071,7.071,0,0,1,81,96.331c0-.212.008-.419.023-.621Zm7.058,0v2.9h-2.4a3.94,3.94,0,0,0,.564-2.275,6.2,6.2,0,0,0-.03-.624Zm10.856,0c.018.239.027.488.027.746v.125H94.09v.167a4.365,4.365,0,0,0,.348,1.855l-1.883,0a7.222,7.222,0,0,1-.341-2.316q0-.3.018-.579Zm4.661,0a5.227,5.227,0,0,0-.089,1v1.9h-1.835v-2.9Zm7.9,0q-.025.279-.025.579a4.918,4.918,0,0,0,.506,2.316h-2.143a6.9,6.9,0,0,1-.365-2.316c0-.2.007-.391.02-.579Zm6.877,0q.019.282.019.579a6.913,6.913,0,0,1-.364,2.316h-2.131a4.706,4.706,0,0,0,.493-2.316c0-.2-.006-.394-.02-.579Zm6.945,0c.083.028.151.056.2.079a4.18,4.18,0,0,1,1.418,1.126,2.54,2.54,0,0,1,.417,1.5c0,.064,0,.128,0,.191h-1.747v-.023a1.027,1.027,0,0,0-.375-.792,2.964,2.964,0,0,0-1.209-.625c-.208-.083-.5-.167-.917-.292a9.877,9.877,0,0,1-1.626-.584,5.105,5.105,0,0,1-.782-.58Zm7.334,0v2.9h-1.835v-2.9Zm12.062,0c.02.239.03.488.03.746v.125h-6.88v.167a4.355,4.355,0,0,0,.349,1.855l-1.884,0A7.222,7.222,0,0,1,138,96.29c0-.2.006-.391.018-.579Zm4.621,0a5.276,5.276,0,0,0-.089,1v1.9h-1.834v-2.9Zm8.872,0a5.724,5.724,0,0,0-.08,1v1.9H158.26v-2.9Zm14.109,0c.02.239.03.488.03.746v.125h-6.921v.167a4.373,4.373,0,0,0,.348,1.855l-1.883,0a7.222,7.222,0,0,1-.341-2.316q0-.3.018-.579Zm4.741,0v2.9h-1.917v-2.9Zm4.95,0a5.493,5.493,0,0,0-.03.579,3.837,3.837,0,0,0,.664,2.32l-2.2,0c-.046-.1-.089-.206-.13-.315a5.568,5.568,0,0,1-.375-2.043q0-.273.022-.537Zm10.724,0a6.23,6.23,0,0,0-.039.7v2.191h-1.917v-2.9Zm6.341,2.9h-1.918v-2.9h1.918Zm-124.322,0c.026-.038.052-.072.079-.107l.153.107Zm22.263,0c.024-.037.047-.071.071-.107l.158.107Zm23.654,0,.225-.19c.049.066.1.13.151.191Zm22.12,0c.026-.038.052-.072.078-.107l.153.107Zm27.6,0c.026-.038.052-.072.078-.107l.153.107Zm17.715,0c.057-.06.112-.124.167-.19v.19Z" transform="translate(-21.092 -40.283)"/><path class="d" d="M51.9,89.71c.008.229.008.445.008.635v2.84H50.112V89.71Zm3.068,0,2.3,3.475H55.14L52.855,89.71Zm5.9,0v3.475H59.118V89.71Zm6.3,0v3.475H65.248V89.71Zm10.143,0c.082.085.162.17.239.259a5.577,5.577,0,0,1,1.14,3.212l-8.751,0a5.494,5.494,0,0,1,1.19-3.215q.116-.135.239-.257Zm10.178,0a5.572,5.572,0,0,1,.934,1.052c-.041-.363-.12-.726-.125-1.05h1.793v3.475H88.224a3.421,3.421,0,0,0-.679-1.839,2.464,2.464,0,0,0-3.836,0,3.416,3.416,0,0,0-.679,1.836l-2.009,0a5.268,5.268,0,0,1,.395-1.714,4.684,4.684,0,0,1,1.092-1.759Zm12.087,0c.08.085.156.17.23.259a5.577,5.577,0,0,1,1.14,3.212l-8.711,0a5.412,5.412,0,0,1,1.15-3.215c.077-.09.158-.175.24-.257Zm5.845,0c-.006.126-.015.255-.028.385-.042.417-.125.834-.167,1.293a6.008,6.008,0,0,1,1.258-1.681l3.783,0-.371,1.135a3.109,3.109,0,0,0-.667-.167,2.753,2.753,0,0,0-.584-.042,2.9,2.9,0,0,0-2.293.917,3.592,3.592,0,0,0-.745,1.63h-1.923V89.71Zm13.533,0c.083.084.163.17.24.259a5.491,5.491,0,0,1,1.19,3.216h-2a4.023,4.023,0,0,0-.647-2.048,2.012,2.012,0,0,0-1.751-.959,2.079,2.079,0,0,0-1.793.959,4.236,4.236,0,0,0-.683,2.048H111.5a5.49,5.49,0,0,1,1.19-3.215q.122-.135.251-.257Zm9.49,0a4.411,4.411,0,0,1,.508.551l-1.334,1.084a3.817,3.817,0,0,0-1.085-.959,2.482,2.482,0,0,0-1.167-.334,1.941,1.941,0,0,0-1.167.334,1,1,0,0,0-.167,1.543,3.3,3.3,0,0,0,.958.5,2.118,2.118,0,0,1,.376.083c.951.306,1.6.529,1.963.668l-4.622,0a3.142,3.142,0,0,1-.386-.422,2.225,2.225,0,0,1-.333-1.293,2.673,2.673,0,0,1,.6-1.763Zm8.222,0v.51h-2v2.965h-1.834V90.22h-2.085v-.51Zm8.683,0c.083.085.163.17.24.259a5.9,5.9,0,0,1,1.138,3.212l-8.709,0a5.416,5.416,0,0,1,1.15-3.215q.116-.135.239-.257Zm5.815,0c-.008.126-.016.255-.03.385-.041.417-.083.834-.166,1.293a6.94,6.94,0,0,1,1.262-1.681l3.8,0-.394,1.135a3.486,3.486,0,0,0-.625-.167,3.159,3.159,0,0,0-.625-.042,2.955,2.955,0,0,0-2.293.917,3.592,3.592,0,0,0-.745,1.63h-1.923V89.71Zm8.848,0c-.012.126-.025.255-.038.385l-.125,1.293a6,6,0,0,1,1.257-1.681l3.783,0-.37,1.135a3.9,3.9,0,0,0-.667-.167,2.957,2.957,0,0,0-.584-.042,2.9,2.9,0,0,0-2.293.917,3.251,3.251,0,0,0-.754,1.63H158.26V89.71Zm12.908,0c.08.085.156.17.23.259a5.663,5.663,0,0,1,1.179,3.212l-8.75,0a5.416,5.416,0,0,1,1.15-3.215c.077-.09.158-.175.24-.257Zm6.151,0v3.475h-1.918V89.71Zm11.216,0v1.927a4.794,4.794,0,0,0-1.376-1.084,3.9,3.9,0,0,0-1.668-.375,3.082,3.082,0,0,0-2.376.959,3.607,3.607,0,0,0-.846,2.048h-2.051a4.9,4.9,0,0,1,.353-1.506,5.352,5.352,0,0,1,1.043-1.668q.171-.157.349-.3Zm4.364,0c-.009.1-.019.2-.028.3-.042.417-.083.876-.167,1.376a4.864,4.864,0,0,1,1.02-1.68l4.873,0a3.742,3.742,0,0,1,.737,2.428v1.047h-1.918v-.63a2.652,2.652,0,0,0-.459-1.668,1.492,1.492,0,0,0-1.335-.542,2.294,2.294,0,0,0-1.917.959,3.614,3.614,0,0,0-.712,1.882h-1.956V89.71Zm-24.67,3.136h2.5a3.787,3.787,0,0,0-.792-2.085,2.3,2.3,0,0,0-1.71-.709,2.184,2.184,0,0,0-1.793.751,3.115,3.115,0,0,0-.751,2.043Zm-27.6,0h2.5a3.783,3.783,0,0,0-.793-2.085,2.294,2.294,0,0,0-1.709-.709,2.048,2.048,0,0,0-1.752.751,2.893,2.893,0,0,0-.708,2.043Zm-45.741,0h2.5a3.782,3.782,0,0,0-.793-2.085,2.293,2.293,0,0,0-1.71-.709A2.329,2.329,0,0,0,94.8,90.8a3.337,3.337,0,0,0-.708,2.043Zm-22.3,0h2.5a3.5,3.5,0,0,0-.792-2.085,2.23,2.23,0,0,0-1.71-.709,2.3,2.3,0,0,0-1.793.751,3.334,3.334,0,0,0-.709,2.043Z" transform="translate(-21.092 -37.757)"/><path class="d" d="M50.112,86.447V82.453h2.21l2.643,3.994h-2.11l-.158-.241c-.208-.334-.417-.667-.584-1a8.939,8.939,0,0,1-.458-.876c.083.584.167,1.126.208,1.584.018.18.028.36.034.533Zm9.006,0V82.453h1.751v3.994Zm6.129,0v-.533h1.918v.533Zm6.118,0a4.033,4.033,0,0,1,2.971-1.158,4.207,4.207,0,0,1,2.971,1.162Zm11.142,0,.034-.032a4.86,4.86,0,0,1,1.167-.709A3.4,3.4,0,0,1,85,85.455a3.155,3.155,0,0,1,.625.042,4.256,4.256,0,0,1,1.209.459,5.62,5.62,0,0,1,.651.489Zm5.788,0v-.032a9.671,9.671,0,0,1-.083-1V82.245h1.876v4.2Zm5.327,0a4.1,4.1,0,0,1,2.97-1.158h.041a4.153,4.153,0,0,1,2.94,1.162Zm10.058,0v-.866h1.751c0,.288,0,.575-.014.862Zm2.8,0a3.291,3.291,0,0,1,.411-.324,3.609,3.609,0,0,1,2.168-.667,3.814,3.814,0,0,1,.709.042,4.847,4.847,0,0,1,.751.167l-.255.783Zm6.458,0a4.226,4.226,0,0,1,3-1.158,4.13,4.13,0,0,1,3.011,1.161Zm9.647,0a2.571,2.571,0,0,1,.317-.324,3.623,3.623,0,0,1,2.418-.834,4.928,4.928,0,0,1,2.085.459,4.636,4.636,0,0,1,1.035.7Zm8.156,0v-.866h2.085V82.453h1.835v3.127h2v.866Zm8.662,0a4,4,0,0,1,2.93-1.158h.042a4.284,4.284,0,0,1,2.97,1.162Zm10.018,0v-.866h1.793c-.029.288-.038.575-.054.862Zm2.8,0a3.056,3.056,0,0,1,.406-.324,3.649,3.649,0,0,1,2.21-.667,4.287,4.287,0,0,1,.709.042c.208.042.459.083.751.167l-.273.783Zm6.035,0v-.866h1.793c0,.288-.02.575-.046.862Zm2.842,0a3.25,3.25,0,0,1,.411-.324,3.525,3.525,0,0,1,2.168-.667,4.038,4.038,0,0,1,.708.042,4.839,4.839,0,0,1,.751.167l-.255.783Zm5.863,0a4.1,4.1,0,0,1,2.97-1.158h.042a4.152,4.152,0,0,1,2.94,1.162Zm10.184,0v-.533h1.918v.533Zm6.562,0a5.5,5.5,0,0,1,1.277-.783,5.123,5.123,0,0,1,1.96-.375,5.926,5.926,0,0,1,1.751.25,6.108,6.108,0,0,1,1.584.751v.158Zm9.074,0v-4.2H194.7v3.336c0,.258-.025.54-.056.866Zm2.688,0a3.218,3.218,0,0,1,.356-.324,3.321,3.321,0,0,1,2.126-.667,2.956,2.956,0,0,1,2.294.876c.034.036.066.074.1.112Zm-15.906-3.285a.973.973,0,0,1-.416.834,1.56,1.56,0,0,1-1.042.334A1.681,1.681,0,0,1,177.024,84a1.088,1.088,0,0,1-.417-.834,1.108,1.108,0,0,1,.417-.876,1.474,1.474,0,0,1,1.084-.334,1.371,1.371,0,0,1,1.042.334,1,1,0,0,1,.416.876m-63-.125a1,1,0,0,1,.959-.917.849.849,0,0,1,.625.25,1.074,1.074,0,0,1,.292.667.778.778,0,0,1-.292.667.849.849,0,0,1-.625.25.946.946,0,0,1-.667-.25.984.984,0,0,1-.292-.667m-3.127,0a1.01,1.01,0,0,1,.917-.917.947.947,0,0,1,.667.25,1.022,1.022,0,0,1,.25.667.861.861,0,0,1-.917.917.946.946,0,0,1-.667-.25.88.88,0,0,1-.25-.667m-45.772.125a1.05,1.05,0,0,1-.375.834,1.767,1.767,0,0,1-1.084.334A1.682,1.682,0,0,1,65.122,84a1.05,1.05,0,0,1-.375-.834,1.077,1.077,0,0,1,.375-.876,1.475,1.475,0,0,1,1.084-.334,1.538,1.538,0,0,1,1.084.334,1.077,1.077,0,0,1,.375.876" transform="translate(-21.092 -34.494)"/></g></svg>